<svg xmlns="http://www.w3.org/2000/svg" viewBox="0 0 30.001 30.001">
  <defs>
    <style>
      .cls-1, .cls-2 {
        fill: #19aa89;
      }

      .cls-2 {
        font-size: 18px;
        font-family: Helvetica;
      }
    </style>
  </defs>
  <g id="Group_126" data-name="Group 126" transform="translate(-27 -156)">
    <path id="Subtraction_218" data-name="Subtraction 218" class="cls-1" d="M-883-218a14.9,14.9,0,0,1-10.607-4.393A14.9,14.9,0,0,1-898-233a14.9,14.9,0,0,1,4.393-10.607A14.9,14.9,0,0,1-883-248a14.9,14.9,0,0,1,10.607,4.393A14.9,14.9,0,0,1-868-233a14.9,14.9,0,0,1-4.393,10.607A14.9,14.9,0,0,1-883-218Zm0-29a13.909,13.909,0,0,0-9.9,4.1A13.907,13.907,0,0,0-897-233a13.909,13.909,0,0,0,4.1,9.9A13.909,13.909,0,0,0-883-219a13.908,13.908,0,0,0,9.9-4.1A13.909,13.909,0,0,0-869-233a13.908,13.908,0,0,0-4.1-9.9A13.908,13.908,0,0,0-883-247Z" transform="translate(925 404)"/>
    <text id="_4" data-name="4" class="cls-2" transform="translate(42 178)"><tspan x="-5.005" y="0">8</tspan></text>
  </g>
</svg>
